<svg viewBox="0 0 1024 1024">
    <path d="M152 156a20 20 0 0 0-20 20v672a20 20 0 0 0 20 20h720a20 20 0 0 0 20-20V176a20 20 0 0 0-20-20H152z m0-72h720c50.808 0 92 41.192 92 92v672c0 50.808-41.192 92-92 92H152c-50.808 0-92-41.192-92-92V176c0-50.808 41.192-92 92-92z"></path>
    <path d="M696 288m36 0l176 0q36 0 36 36l0 0q0 36-36 36l-176 0q-36 0-36-36l0 0q0-36 36-36Z"></path>
    <path d="M696 472m36 0l176 0q36 0 36 36l0 0q0 36-36 36l-176 0q-36 0-36-36l0 0q0-36 36-36Z"></path>
    <path d="M696 656m36 0l176 0q36 0 36 36l0 0q0 36-36 36l-176 0q-36 0-36-36l0 0q0-36 36-36Z"></path>
    <path d="M400 556c-77.32 0-140-62.68-140-140S322.68 276 400 276 540 338.68 540 416 477.32 556 400 556z m0-72a68 68 0 1 0 0-136 68 68 0 0 0 0 136z"></path>
    <path d="M620 712a36 36 0 1 1-72 0c0-81.736-66.264-148-148-148S252 630.264 252 712a36 36 0 1 1-72 0c0-121.504 98.496-220 220-220S620 590.496 620 712z"></path>
</svg>
