<?xml version="1.0" standalone="no"?><!DOCTYPE svg PUBLIC "-//W3C//DTD SVG 1.1//EN" "http://www.w3.org/Graphics/SVG/1.1/DTD/svg11.dtd"><svg t="1533802830794" class="icon" style="" viewBox="0 0 1024 1024" version="1.1" xmlns="http://www.w3.org/2000/svg" p-id="4253" xmlns:xlink="http://www.w3.org/1999/xlink" width="200" height="200"><defs><style type="text/css"></style></defs><path d="M152 156a20 20 0 0 0-20 20v672a20 20 0 0 0 20 20h720a20 20 0 0 0 20-20V176a20 20 0 0 0-20-20H152z m0-72h720c50.808 0 92 41.192 92 92v672c0 50.808-41.192 92-92 92H152c-50.808 0-92-41.192-92-92V176c0-50.808 41.192-92 92-92z" fill="#333333" p-id="4254"></path><path d="M696 288m36 0l176 0q36 0 36 36l0 0q0 36-36 36l-176 0q-36 0-36-36l0 0q0-36 36-36Z" fill="#333333" p-id="4255"></path><path d="M696 472m36 0l176 0q36 0 36 36l0 0q0 36-36 36l-176 0q-36 0-36-36l0 0q0-36 36-36Z" fill="#333333" p-id="4256"></path><path d="M696 656m36 0l176 0q36 0 36 36l0 0q0 36-36 36l-176 0q-36 0-36-36l0 0q0-36 36-36Z" fill="#333333" p-id="4257"></path><path d="M400 556c-77.32 0-140-62.68-140-140S322.68 276 400 276 540 338.68 540 416 477.32 556 400 556z m0-72a68 68 0 1 0 0-136 68 68 0 0 0 0 136z" fill="#333333" p-id="4258"></path><path d="M620 712a36 36 0 1 1-72 0c0-81.736-66.264-148-148-148S252 630.264 252 712a36 36 0 1 1-72 0c0-121.504 98.496-220 220-220S620 590.496 620 712z" fill="#333333" p-id="4259"></path></svg>