<?xml version="1.0" standalone="no"?><!DOCTYPE svg PUBLIC "-//W3C//DTD SVG 1.1//EN" "http://www.w3.org/Graphics/SVG/1.1/DTD/svg11.dtd"><svg t="1533803010367" class="icon" style="" viewBox="0 0 1024 1024" version="1.1" xmlns="http://www.w3.org/2000/svg" p-id="1294" xmlns:xlink="http://www.w3.org/1999/xlink" width="200" height="200"><defs><style type="text/css"></style></defs><path d="M512 56C260.16 56 56 260.16 56 512s204.16 456 456 456 456-204.16 456-456S763.84 56 512 56z m0 136c75.112 0 136 60.888 136 136s-60.888 136-136 136-136-60.888-136-136 60.888-136 136-136z m0 672c-128.712 0-241.24-69.12-302.624-172.232C279.656 601.864 389.04 544 512 544s232.344 57.864 302.624 147.768C753.24 794.88 640.712 864 512 864z" p-id="1295"></path></svg>