<?xml version="1.0" standalone="no"?><!DOCTYPE svg PUBLIC "-//W3C//DTD SVG 1.1//EN" "http://www.w3.org/Graphics/SVG/1.1/DTD/svg11.dtd"><svg t="1533802536316" class="icon" style="" viewBox="0 0 1024 1024" version="1.1" xmlns="http://www.w3.org/2000/svg" p-id="2966" xmlns:xlink="http://www.w3.org/1999/xlink" width="200" height="200"><defs><style type="text/css"></style></defs><path d="M512 56C260 56 56 260 56 512s204 456 456 456 456-204 456-456S764 56 512 56z m0 840c-212 0-384-172-384-384s172-384 384-384 384 172 384 384-172 384-384 384z" fill="#333333" p-id="2967"></path><path d="M512.496 684.488a35.912 35.912 0 0 1-25.44-10.528L265.976 452.896a36.008 36.008 0 0 1 50.912-50.912l195.6 195.6 195.6-195.592a36.008 36.008 0 0 1 50.904 50.912L537.944 673.96a35.904 35.904 0 0 1-25.44 10.528z" fill="#333333" p-id="2968"></path></svg>