<svg viewBox="0 0 1024 1024">
    <path d="M629.6 312.8h152.8v152.8c0 8.8 7.2 16 16 16s16-7.2 16-16V312.8h152.8c8.8 0 16-7.2 16-16s-7.2-16-16-16h-152.8v-152.8c0-8.8-7.2-16-16-16s-16 7.2-16 16V280.8h-152.8c-8.8 0-16 7.2-16 16s7.2 16 16 16zM310.4 339.2v371.2c0 8.8 7.2 16 16 16s16-7.2 16-16v-371.2c0-8.8-7.2-16-16-16s-16 7.2-16 16zM496 440v270.4c0 8.8 7.2 16 16 16s16-7.2 16-16v-270.4c0-8.8-7.2-16-16-16s-16 7.2-16 16zM681.6 541.6v168.8c0 8.8 7.2 16 16 16s16-7.2 16-16v-168.8c0-8.8-7.2-16-16-16s-16 7.2-16 16z"></path>
    <path d="M967.2 761.6h-43.2v-236.8c0-8.8-7.2-16-16-16s-16 7.2-16 16v236.8h-43.2c-8.8 0-16 7.2-16 16v43.2h-643.2v-43.2c0-8.8-7.2-16-16-16h-43.2v-491.2h43.2c8.8 0 16-7.2 16-16v-43.2h388.8c8.8 0 16-7.2 16-16s-7.2-16-16-16h-388.8v-43.2c0-8.8-7.2-16-16-16H56c-8.8 0-16 7.2-16 16v118.4c0 8.8 7.2 16 16 16h43.2v491.2h-43.2c-8.8 0-16 7.2-16 16v118.4c0 8.8 7.2 16 16 16h118.4c8.8 0 16-7.2 16-16v-43.2h643.2v43.2c0 8.8 7.2 16 16 16h118.4c8.8 0 16-7.2 16-16v-118.4c-0.8-8.8-8-16-16.8-16zM72 152h86.4v86.4H72v-86.4z m86.4 728H72v-86.4h86.4v86.4z m792.8 0h-86.4v-86.4h86.4v86.4z"></path>
</svg>
