<svg viewBox="0 0 1024 1024">
    <path d="M160 156a20 20 0 0 0-20 20v528a20 20 0 0 0 20 20h704a20 20 0 0 0 20-20V176a20 20 0 0 0-20-20H160z m0-72h704c50.808 0 92 41.192 92 92v528c0 50.808-41.192 92-92 92H160c-50.808 0-92-41.192-92-92V176c0-50.808 41.192-92 92-92zM192 940a36 36 0 0 1 0-72h640a36 36 0 1 1 0 72H192z"></path>
    <path d="M300.928 547.52a36 36 0 0 1-55.36-46.032l135.864-163.36a36 36 0 0 1 54.376-1.136l137.936 152.48 150.16-180.928a36 36 0 1 1 55.4 45.976L602.616 567.424a36 36 0 0 1-54.4 1.16L410.256 416.064 300.928 547.528z"></path>
</svg>
