<?xml version="1.0" standalone="no"?><!DOCTYPE svg PUBLIC "-//W3C//DTD SVG 1.1//EN" "http://www.w3.org/Graphics/SVG/1.1/DTD/svg11.dtd"><svg t="1533802655318" class="icon" style="" viewBox="0 0 1024 1024" version="1.1" xmlns="http://www.w3.org/2000/svg" p-id="3594" xmlns:xlink="http://www.w3.org/1999/xlink" width="200" height="200"><defs><style type="text/css"></style></defs><path d="M860 472a36 36 0 1 1 72 0v344c0 64.064-51.936 116-116 116H208c-64.064 0-116-51.936-116-116V208c0-64.064 51.936-116 116-116h344a36 36 0 1 1 0 72H208a44 44 0 0 0-44 44v608a44 44 0 0 0 44 44h608a44 44 0 0 0 44-44V472z m40.464-350.544a36 36 0 0 1 0 50.912L421.872 650.96a36 36 0 0 1-50.912-50.912l478.592-478.592a36 36 0 0 1 50.912 0z" fill="#333333" p-id="3595"></path></svg>