<?xml version="1.0" standalone="no"?><!DOCTYPE svg PUBLIC "-//W3C//DTD SVG 1.1//EN" "http://www.w3.org/Graphics/SVG/1.1/DTD/svg11.dtd"><svg t="1533802571828" class="icon" style="" viewBox="0 0 1024 1024" version="1.1" xmlns="http://www.w3.org/2000/svg" p-id="3076" xmlns:xlink="http://www.w3.org/1999/xlink" width="200" height="200"><defs><style type="text/css"></style></defs><path d="M138.16 239.632h747.648c19.528 0 35.52-15.632 35.52-34.776 0-19.12-15.792-34.76-35.52-34.76H138.168c-19.504 0-35.488 15.632-35.488 34.76 0 19.144 15.984 34.776 35.488 34.776z m747.648 237.704H138.168c-19.504 0-35.488 16.184-35.488 35.984 0 19.824 15.96 36.016 35.488 36.016h747.64c19.528 0 35.52-16.192 35.52-36.016 0-19.8-15.992-35.984-35.52-35.984z m0 307.056H138.168c-19.504 0-35.488 16.04-35.488 36.056 0 19.912 15.96 35.944 35.488 35.944h747.64c19.528 0 35.52-16.032 35.52-35.944 0-20.016-15.992-36.056-35.52-36.056z" fill="#333333" p-id="3077"></path></svg>