<svg viewBox="0 0 1024 1024">
    <path d="M480 360v352h464V360H480z m0-32h464a32 32 0 0 1 32 32v352a32 32 0 0 1-32 32H480a32 32 0 0 1-32-32V360a32 32 0 0 1 32-32z"></path>
    <path d="M599.68 446.768a16 16 0 1 1 22.568-22.68l192.888 192a16 16 0 1 1-22.568 22.68l-192.896-192z"></path>
    <path d="M792.56 424.088a16 16 0 1 1 22.576 22.68l-192.88 192a16 16 0 0 1-22.584-22.68l192.896-192zM680.72 112c-59.656 0-108 48.352-108 108V328h279.432V220c0-59.648-48.36-108-108-108h-63.44z m0-32h63.432c77.32 0 140 62.68 140 140V328a32 32 0 0 1-32 32h-279.44a32 32 0 0 1-32-32V220c0-77.32 62.68-140 140-140z"></path>
    <path d="M608 818.648a16 16 0 1 1 32 0v85.28c0 17.744-14.464 32.072-32.232 32.072H88.24C70.464 936 56 921.672 56 903.92V272.08C56 254.32 70.464 240 88.232 240h288.632a16 16 0 1 1 0 32h-288.64c-0.104 0-0.176 210.64-0.224 631.92l519.768 0.08c0.112 0 0.184-28.448 0.232-85.352z"></path>
    <path d="M176 448a16 16 0 1 1 0-32h192a16 16 0 1 1 0 32H176zM176 608a16 16 0 1 1 0-32h192a16 16 0 1 1 0 32H176zM176 768a16 16 0 1 1 0-32h200a16 16 0 1 1 0 32H176z"></path>
</svg>
