<?xml version="1.0" standalone="no"?><!DOCTYPE svg PUBLIC "-//W3C//DTD SVG 1.1//EN" "http://www.w3.org/Graphics/SVG/1.1/DTD/svg11.dtd"><svg t="1533802874482" class="icon" style="" viewBox="0 0 1024 1024" version="1.1" xmlns="http://www.w3.org/2000/svg" p-id="4588" xmlns:xlink="http://www.w3.org/1999/xlink" width="200" height="200"><defs><style type="text/css"></style></defs><path d="M254.744 156v110.72l87.088-0.56c29.064 0 52.344 23.28 52.344 52v147.76a52 52 0 0 1-13.136 34.544L182.344 724h656.816L640.448 500.4a52 52 0 0 1-13.128-34.552V318.32a52 52 0 0 1 51.936-52l87.488-0.104V156h-512z m67.432 182.288l-87.088 0.568a52 52 0 0 1-52.344-51.656V136a52 52 0 0 1 52-52h552a52 52 0 0 1 52 52v150.192a52 52 0 0 1-51.936 52l-87.488 0.096v119.96l223.24 251.208a52 52 0 0 1-38.864 86.544H137.808a52 52 0 0 1-38.872-86.544l223.24-251.144V338.288z" fill="#666666" p-id="4589"></path><path d="M476 800a36 36 0 1 1 72 0v128a36 36 0 0 1-72 0v-128z" fill="#666666" p-id="4590"></path></svg>