<svg viewBox="0 0 1024 1024">
    <path d="M956.536 418.488c-6.784-25.64-19.6-45.248-45.24-45.248h-6.792c-58.064 0-109.344-51.28-109.344-109.344 0-19.608 6.784-45.248 6.784-45.248 12.824-25.64 0-51.28-19.6-70.888l-109.36-64.104H647.36c-19.608 0-32.432 6.792-45.248 19.608-12.824 12.824-58.072 51.28-89.744 51.28-31.672 0-76.92-38.456-89.736-51.28-6.792-12.816-25.64-19.6-38.464-19.6-12.816 0-19.6 0-25.64 6.784l-116.136 64.096c-25.64 12.824-32.424 45.248-19.6 70.888 0 0 6.784 19.608 6.784 45.248 0 58.072-51.28 109.352-109.352 109.352h-6.784c-19.608 0-38.464 19.6-45.248 45.24 0 0-6.792 45.248-6.792 83.712 0 38.456 6.792 89.744 6.792 89.744 6.784 25.64 19.6 45.24 45.248 45.24h6.784c58.072 0 109.352 51.28 109.352 109.352 0 19.6-6.792 45.248-6.792 45.248-12.816 25.64 0 51.28 19.608 70.88l109.352 64.104c6.784 6.792 12.816 6.792 25.64 6.792 19.6 0 32.424-6.792 45.248-19.608 12.816-19.608 58.064-51.28 89.736-51.28 31.68 0 76.92 38.456 89.744 51.28 12.816 12.816 25.64 19.6 45.248 19.6 6.784 0 12.816 0 25.64-6.784l116.136-64.096c19.6-12.824 32.424-45.248 19.6-70.888 0 0-12.816-19.608-12.816-45.248 0-58.072 51.28-109.352 109.344-109.352h6.792c19.6 0 38.456-19.6 45.248-45.24 0 0 6.784-51.28 6.784-89.744-0.752-39.216-7.544-83.712-7.544-90.496z m-578.592 437.76l-94-49.936c6.608-12.48 12.48-37.448 12.48-62.416 0-87.392-69.032-163.04-156.416-168.912 0-12.48-6.616-44.064-6.616-69.032 0-24.96 6.616-56.544 6.616-69.032 87.384-6.608 156.416-81.512 156.416-168.904 0-24.96-6.608-49.936-12.48-62.424l100.608-49.936s19.096 19.096 37.456 31.584c31.576 24.96 62.416 37.448 94 37.448 24.96 0 56.544-12.48 87.384-31.576l37.456-37.456 94 49.936c-6.608 12.488-12.48 37.456-12.48 62.424 0 87.392 69.024 163.04 156.416 168.904 0 12.488 6.608 44.064 6.608 69.04 0 24.96-6.608 56.544-6.608 69.024-87.392 6.608-156.416 81.52-156.416 168.912 0 24.96 6.608 49.936 12.48 62.416l-94 56.552c-6.608-6.616-19.096-19.096-37.456-31.584-31.576-24.96-62.416-37.448-94-37.448-31.576 0-62.416 12.48-94 37.448-18.352 6.616-37.448 19.096-37.448 24.968z"></path>
    <path d="M703.304 513.96c0-108.752-83.248-192-192-192s-192 83.248-192 192 83.248 192 192 192 192-89.248 192-192z m-192-120c65.968 0 120 54.04 120 120 0 65.968-54.032 120-120 120-65.96 0-120-54.032-120-120 0.704-65.96 54.04-120 120-120z"></path>
</svg>
