<svg viewBox="0 0 1024 1024">
    <path d="M622.64 895.192c5.088 0 10.024-2.104 12.984-5.36 17.416-19.072 44.088-37.376 67-37.376 23.176 0 49.52 18.24 67.464 38.112 2.936 3.28 7.936 5.424 13.104 5.432v9.944l0.056-9.944c2.048 0.016 4.08-0.4 5.976-1.2l65.528-36.592a15.576 15.576 0 0 0 5.112-18.704c-1.04-2.44-2.296-5.816-3.6-10.24a86.528 86.528 0 0 1-3.488-18.288 60.648 60.648 0 0 1-0.16-4.304c0.056-47.08 37.864-85.312 84.64-85.384h2.672c0.656 0.024 1.344-0.296 2.4-1.432 1.88-2.04 3.52-5.576 4.464-10.64 2.032-9.584 5.208-33.264 5.208-49.024 0-3.536-0.144-7.432-0.424-11.624a317.048 317.048 0 0 0-2.192-21.016 405.936 405.936 0 0 0-2.632-16.72c-0.88-4.696-2.528-8.248-4.424-10.296-1.056-1.144-1.76-1.464-2.768-1.448h-2.32c-46.76-0.072-84.56-38.296-84.624-85.408 0-1.376 0.048-2.768 0.152-4.176 0.416-6.032 1.664-12.192 3.488-18.344 1.296-4.4 4.024-11.728 3.12-9l0.56-1.44c2.8-6.352 0.552-14.512-4.976-18.392l-64.584-36.296a15.672 15.672 0 0 0-6.36-1.24c-5.12 0-10.12 2.048-13.112 5.2-17.536 18.28-43.28 35.16-65.544 35.16-22.464 0-48.336-17.192-66-35.88-2.992-3.184-8.016-5.272-13.2-5.272-2.264 0-4.24 0.376-6.256 1.224l-66.8 37.104a15.52 15.52 0 0 0-4.976 18.528c-0.416-1.44 2.312 5.88 3.608 10.272 1.824 6.16 3.08 12.32 3.496 18.36 0.104 1.416 0.152 2.816 0.152 4.208-0.048 47.104-37.872 85.352-84.656 85.408h-2.656c-0.664-0.016-1.352 0.296-2.4 1.432-1.888 2.04-3.544 5.6-4.44 10.368a355.632 355.632 0 0 0-2.704 17.28c-1.584 11.888-2.528 22.976-2.528 32.04 0 9.04 0.944 20.128 2.536 32 0.992 7.416 2.176 14.576 2.72 17.36 0.88 4.64 2.496 8.16 4.368 10.224 1.048 1.16 1.76 1.496 2.4 1.496h2.736c46.752 0.064 84.56 38.288 84.624 85.392 0 1.344-0.048 2.704-0.144 4.08a86.16 86.16 0 0 1-3.488 18.464c-1.304 4.408-4.04 11.76-3.136 9.016-3.304 7.896-1.224 15.624 4.616 19.984l63.144 35.688c1.88 0.84 3.936 1.264 6.264 1.264z m123.664 16.784c-12.24-13.544-32.416-27.52-43.68-27.52-11.088 0-31.632 14.096-43.336 26.912-9.096 10.032-22.688 15.824-36.648 15.824a46.712 46.712 0 0 1-19.024-3.92l-2.24-1.064-65.632-37.096c-19.208-13.96-25.736-37.736-17.04-58.144l0.664-1.704a77.6 77.6 0 0 0 1.688-5.08 55.36 55.36 0 0 0 2.256-11.568c0.048-0.672 0.072-1.312 0.072-1.904-0.04-29.52-23.632-53.368-52.64-53.408h-2.72c-19.648 0-34.128-15.968-38.184-37.68a378.816 378.816 0 0 1-3.024-19.144c-1.76-13.16-2.816-25.544-2.816-36.256 0-10.72 1.056-23.104 2.808-36.272 1.072-8.04 2.296-15.44 2.992-19.04 4.192-22.208 19.016-38.272 38.64-37.808h2.264c29.04-0.032 52.648-23.904 52.68-53.424 0-0.616-0.024-1.28-0.08-1.968a55.464 55.464 0 0 0-2.256-11.512 78.184 78.184 0 0 0-1.688-5.08l-0.68-1.744a47.568 47.568 0 0 1 16.08-57.264l2.064-1.344 69.184-38.424c7.136-3.072 13.52-4.344 20.16-4.344 13.848 0 27.376 5.616 36.488 15.336 11.976 12.672 31.76 25.816 42.704 25.816 10.88 0 30.544-12.896 42.4-25.264 9.128-9.592 22.56-15.096 36.256-15.096 6.736 0 13.2 1.304 19.088 3.88l2.208 1.04 66 37.096 2.024 1.32c18.064 12.696 24.8 37.216 15.888 57.488-0.264 0.672-0.432 1.096-0.592 1.536a77.704 77.704 0 0 0-1.688 5.072 55.392 55.392 0 0 0-2.256 11.496 28.376 28.376 0 0 0-0.072 1.944c0.04 29.52 23.632 53.384 52.64 53.424h1.952c19.968-0.432 34.832 15.64 39.008 37.904 0.864 4.672 1.84 10.56 2.88 18.264 1.072 7.968 1.912 15.776 2.4 23.168 0.328 4.872 0.504 9.472 0.504 13.76 0 10.72-1.056 23.128-2.824 36.296a363.616 363.616 0 0 1-3 18.976c-4.12 22.192-19.008 38.296-38.616 37.84h-2.28c-29.04 0.04-52.624 23.896-52.664 53.4 0 0.64 0.024 1.312 0.08 2.016 0.24 3.432 1.048 7.4 2.256 11.48 0.92 3.12 1.776 5.408 2.368 6.808 8.688 20.432 2.104 44.216-15.656 57.024l-1.488 1.112-68.08 38.008-2.16 1.024a47.064 47.064 0 0 1-18.84 3.832c-14.064-0.04-27.72-5.92-36.792-16.024z"></path>
    <path d="M700 768C640.352 768 592 719.648 592 660S640.352 552 700 552 808 600.352 808 660 759.648 768 700 768z m0-32a76 76 0 1 0 0-152 76 76 0 0 0 0 152zM896 266H104.144c-0.056 95.728-0.104 244.32-0.144 445.784 0 0.064 84.056 0.136 252.16 0.216a16 16 0 1 1 0 32H104.32C86.48 744 72 729.6 72 711.784V136.216A32.264 32.264 0 0 1 104.32 104h791.36c17.832 0 32.32 14.4 32.32 32.216V356.4a16 16 0 0 1-32 0V266z m0-32V136.216c0-0.064-263.896-0.136-791.68-0.216-0.056 0-0.104 32.664-0.16 98H896zM264 898a16 16 0 0 1 0-32h176a16 16 0 0 1 0 32H264z"></path>
</svg>
