<svg viewBox="0 0 1024 1024">
    <path d="M956 896H68c-37.6 0-68-30.4-68-68v-632C0 158.4 30.4 128 68 128h888c37.6 0 68 30.4 68 68v632c0 37.6-30.4 68-68 68zM72 824h880V200H72v624z"></path>
    <path d="M296 276v472c0 17.6-14.4 32-32 32H168c-17.6 0-32-14.4-32-32v-472c0-17.6 14.4-32 32-32h96c17.6 0 32 14.4 32 32zM664 276v472c0 17.6-14.4 32-32 32H392c-17.6 0-32-14.4-32-32v-472c0-17.6 14.4-32 32-32h240c17.6 0 32 14.4 32 32zM888 276v472c0 17.6-14.4 32-32 32H760c-17.6 0-32-14.4-32-32v-472c0-17.6 14.4-32 32-32h96c17.6 0 32 14.4 32 32z"></path>
</svg>
